<svg xmlns="http://www.w3.org/2000/svg" viewBox="0 0 420 282" width="420" height="282" role="img" aria-labelledby="title desc"><title id="title">Principais linguagens de Mateus Souza</title><desc id="desc">Distribuição dos repositórios com Java, TypeScript, JavaScript e outras linguagens.</desc>
  <defs><style><![CDATA[text{font-family:'SFMono-Regular',Consolas,'Liberation Mono',monospace}@keyframes fadeUp{from{opacity:0;transform:translateY(8px)}to{opacity:1;transform:translateY(0)}}@keyframes shineX{0%{transform:translateX(-140px)}60%,100%{transform:translateX(460px)}}.row{opacity:0;animation:fadeUp .5s ease forwards}.sh{animation:shineX 4s ease-in-out 2.2s infinite}@media(prefers-reduced-motion:reduce){.row,.sh{animation:none!important;opacity:1}}]]></style><linearGradient id="tg" x1="0" y1="0" x2="1" y2="0"><stop stop-color="#38bdf8"/><stop offset=".5" stop-color="#7c3aed"/><stop offset="1" stop-color="#3ddc84"/></linearGradient><linearGradient id="shg" x1="0" y1="0" x2="1" y2="0"><stop stop-color="#fff" stop-opacity="0"/><stop offset=".5" stop-color="#fff" stop-opacity=".08"/><stop offset="1" stop-color="#fff" stop-opacity="0"/></linearGradient><clipPath id="card"><rect x="1" y="1" width="418" height="280" rx="14"/></clipPath><clipPath id="stack"><rect x="20" y="58" width="380" height="11" rx="5.5"/></clipPath></defs>
  <rect x="1" y="1" width="418" height="280" rx="14" fill="#0b1026" stroke="url(#tg)" stroke-width="1.5"/><text x="20" y="34" font-size="16" font-weight="bold" fill="#c4b5fd">📊 Principais Linguagens</text>
  <g clip-path="url(#stack)"><rect x="20" y="58" width="246" height="11" fill="#f59e0b"><animate attributeName="width" from="0" to="246" dur="1.2s" begin=".35s" fill="freeze"/></rect><rect x="266" y="58" width="67" height="11" fill="#38bdf8"/><rect x="333" y="58" width="22" height="11" fill="#fde047"/><rect x="355" y="58" width="45" height="11" fill="#c084fc"/></g>
  <g class="row" style="animation-delay:.8s"><circle cx="26" cy="91" r="5" fill="#f59e0b"/><text x="40" y="96" font-size="13" fill="#e2e8f0" font-weight="bold">Java</text><text x="396" y="96" text-anchor="end" font-size="13" fill="#fbbf24" font-weight="bold">64.7%</text><rect x="40" y="104" width="268" height="9" rx="4.5" fill="#171333"/><rect x="40" y="104" width="173.4" height="9" rx="4.5" fill="#f59e0b"><animate attributeName="width" from="0" to="173.4" dur="1.1s" begin=".95s" fill="freeze"/></rect></g>
  <g class="row" style="animation-delay:1.15s"><circle cx="26" cy="133" r="5" fill="#38bdf8"/><text x="40" y="138" font-size="13" fill="#e2e8f0" font-weight="bold">TypeScript</text><text x="396" y="138" text-anchor="end" font-size="13" fill="#7dd3fc" font-weight="bold">17.6%</text><rect x="40" y="146" width="268" height="9" rx="4.5" fill="#171333"/><rect x="40" y="146" width="47.2" height="9" rx="4.5" fill="#38bdf8"><animate attributeName="width" from="0" to="47.2" dur="1.1s" begin="1.3s" fill="freeze"/></rect></g>
  <g class="row" style="animation-delay:1.5s"><circle cx="26" cy="175" r="5" fill="#fde047"/><text x="40" y="180" font-size="13" fill="#e2e8f0" font-weight="bold">JavaScript</text><text x="396" y="180" text-anchor="end" font-size="13" fill="#fde047" font-weight="bold">5.9%</text><rect x="40" y="188" width="268" height="9" rx="4.5" fill="#171333"/><rect x="40" y="188" width="15.8" height="9" rx="4.5" fill="#fde047"><animate attributeName="width" from="0" to="15.8" dur="1.1s" begin="1.65s" fill="freeze"/></rect></g>
  <g class="row" style="animation-delay:1.85s"><circle cx="26" cy="217" r="5" fill="#c084fc"/><text x="40" y="222" font-size="13" fill="#e2e8f0" font-weight="bold">Python + HTML</text><text x="396" y="222" text-anchor="end" font-size="13" fill="#c084fc" font-weight="bold">11.8%</text><rect x="40" y="230" width="268" height="9" rx="4.5" fill="#171333"/><rect x="40" y="230" width="31.6" height="9" rx="4.5" fill="#c084fc"><animate attributeName="width" from="0" to="31.6" dur="1.1s" begin="2s" fill="freeze"/></rect></g><g clip-path="url(#card)"><rect class="sh" x="0" y="0" width="100" height="282" fill="url(#shg)"/></g>
</svg>
